<mxfile host="app.diagrams.net" modified="2024-05-19T21:32:46.046Z" agent="Mozilla/5.0 (Windows NT 10.0; Win64; x64) AppleWebKit/537.36 (KHTML, like Gecko) Chrome/125.0.0.0 Safari/537.36" etag="Md5lo7x8qzYm84_588Cv" version="24.4.4" type="github">
  <diagram name="Page-1" id="e7e014a7-5840-1c2e-5031-d8a46d1fe8dd">
    <mxGraphModel dx="1878" dy="951" grid="1" gridSize="10" guides="1" tooltips="1" connect="1" arrows="1" fold="1" page="1" pageScale="1" pageWidth="827" pageHeight="1169" background="none" math="0" shadow="0">
      <root>
        <mxCell id="0" />
        <mxCell id="1" parent="0" />
        <mxCell id="qUEp5JDyuRjwkCP3OGmx-11" value="Assistent*in erstellen" style="shape=umlFrame;whiteSpace=wrap;html=1;pointerEvents=0;width=150;height=29;align=left;" parent="1" vertex="1">
          <mxGeometry x="40" y="10" width="440" height="960" as="geometry" />
        </mxCell>
        <mxCell id="MgezpqlqO5ehmBHzZB3i-65" style="edgeStyle=orthogonalEdgeStyle;rounded=0;orthogonalLoop=1;jettySize=auto;html=1;entryX=0.5;entryY=0;entryDx=0;entryDy=0;fontFamily=Helvetica;fontSize=12;fontColor=default;endArrow=open;endFill=0;" parent="1" target="MgezpqlqO5ehmBHzZB3i-57" edge="1">
          <mxGeometry relative="1" as="geometry">
            <mxPoint x="273.5" y="78" as="sourcePoint" />
          </mxGeometry>
        </mxCell>
        <mxCell id="5" value="" style="ellipse;shape=startState;labelBackgroundColor=none;fillColor=#000000;" parent="1" vertex="1">
          <mxGeometry x="258.5" y="52" width="30" height="30" as="geometry" />
        </mxCell>
        <mxCell id="8" value="Namen eingeben" style="labelBackgroundColor=none;rounded=1;whiteSpace=wrap;html=1;" parent="1" vertex="1">
          <mxGeometry x="218.5" y="228" width="110" height="50" as="geometry" />
        </mxCell>
        <mxCell id="9" value="" style="endArrow=open;endFill=1;rounded=0;labelBackgroundColor=none;fontColor=default;exitX=0.5;exitY=1;exitDx=0;exitDy=0;" parent="1" source="MgezpqlqO5ehmBHzZB3i-57" target="8" edge="1">
          <mxGeometry relative="1" as="geometry">
            <mxPoint x="268.5" y="180" as="sourcePoint" />
          </mxGeometry>
        </mxCell>
        <mxCell id="MgezpqlqO5ehmBHzZB3i-50" style="edgeStyle=orthogonalEdgeStyle;rounded=0;orthogonalLoop=1;jettySize=auto;html=1;entryX=0.5;entryY=0;entryDx=0;entryDy=0;endArrow=open;endFill=0;" parent="1" source="10" target="MgezpqlqO5ehmBHzZB3i-49" edge="1">
          <mxGeometry relative="1" as="geometry" />
        </mxCell>
        <mxCell id="10" value="Stunden-Soll eingeben" style="labelBackgroundColor=none;rounded=1;whiteSpace=wrap;html=1;" parent="1" vertex="1">
          <mxGeometry x="218.5" y="328" width="110" height="50" as="geometry" />
        </mxCell>
        <mxCell id="11" value="" style="endArrow=open;endFill=1;rounded=0;labelBackgroundColor=none;fontColor=default;" parent="1" source="8" target="10" edge="1">
          <mxGeometry relative="1" as="geometry" />
        </mxCell>
        <mxCell id="MgezpqlqO5ehmBHzZB3i-42" value="[nein]" style="text;html=1;align=center;verticalAlign=middle;resizable=0;points=[];autosize=1;strokeColor=none;fillColor=none;" parent="1" vertex="1">
          <mxGeometry x="268.5" y="178" width="50" height="30" as="geometry" />
        </mxCell>
        <mxCell id="MgezpqlqO5ehmBHzZB3i-52" style="edgeStyle=orthogonalEdgeStyle;rounded=0;orthogonalLoop=1;jettySize=auto;html=1;entryX=0.5;entryY=0;entryDx=0;entryDy=0;endArrow=open;endFill=0;" parent="1" source="MgezpqlqO5ehmBHzZB3i-49" target="MgezpqlqO5ehmBHzZB3i-51" edge="1">
          <mxGeometry relative="1" as="geometry" />
        </mxCell>
        <mxCell id="MgezpqlqO5ehmBHzZB3i-77" style="edgeStyle=orthogonalEdgeStyle;rounded=0;orthogonalLoop=1;jettySize=auto;html=1;strokeColor=default;align=center;verticalAlign=middle;fontFamily=Helvetica;fontSize=12;fontColor=default;labelBackgroundColor=default;endArrow=open;endFill=0;entryX=1;entryY=0.5;entryDx=0;entryDy=0;" parent="1" source="MgezpqlqO5ehmBHzZB3i-49" target="hqQaLVxirCN9yKYcP4mg-16" edge="1">
          <mxGeometry relative="1" as="geometry">
            <mxPoint x="354" y="655" as="targetPoint" />
            <Array as="points">
              <mxPoint x="400" y="453" />
              <mxPoint x="400" y="663" />
            </Array>
          </mxGeometry>
        </mxCell>
        <mxCell id="MgezpqlqO5ehmBHzZB3i-49" value="" style="rhombus;whiteSpace=wrap;html=1;" parent="1" vertex="1">
          <mxGeometry x="248.5" y="428" width="50" height="50" as="geometry" />
        </mxCell>
        <mxCell id="MgezpqlqO5ehmBHzZB3i-73" style="edgeStyle=orthogonalEdgeStyle;rounded=0;orthogonalLoop=1;jettySize=auto;html=1;strokeColor=default;align=center;verticalAlign=middle;fontFamily=Helvetica;fontSize=12;fontColor=default;labelBackgroundColor=default;endArrow=open;endFill=0;entryX=0.5;entryY=0;entryDx=0;entryDy=0;" parent="1" source="MgezpqlqO5ehmBHzZB3i-51" edge="1" target="hqQaLVxirCN9yKYcP4mg-16">
          <mxGeometry relative="1" as="geometry">
            <mxPoint x="304" y="655" as="targetPoint" />
          </mxGeometry>
        </mxCell>
        <mxCell id="MgezpqlqO5ehmBHzZB3i-51" value="Über-/ Minusstunden eingeben" style="rounded=1;whiteSpace=wrap;html=1;" parent="1" vertex="1">
          <mxGeometry x="213.5" y="533" width="120" height="52" as="geometry" />
        </mxCell>
        <mxCell id="MgezpqlqO5ehmBHzZB3i-55" value="Über-/ Minusstunden&lt;div&gt;angeben/ ändern?&lt;/div&gt;" style="text;html=1;align=center;verticalAlign=middle;resizable=0;points=[];autosize=1;strokeColor=none;fillColor=none;" parent="1" vertex="1">
          <mxGeometry x="288.5" y="408" width="130" height="40" as="geometry" />
        </mxCell>
        <mxCell id="MgezpqlqO5ehmBHzZB3i-56" value="[ja]" style="text;html=1;align=center;verticalAlign=middle;resizable=0;points=[];autosize=1;strokeColor=none;fillColor=none;" parent="1" vertex="1">
          <mxGeometry x="268.5" y="488" width="40" height="30" as="geometry" />
        </mxCell>
        <mxCell id="MgezpqlqO5ehmBHzZB3i-61" style="edgeStyle=orthogonalEdgeStyle;rounded=0;orthogonalLoop=1;jettySize=auto;html=1;entryX=1;entryY=0.5;entryDx=0;entryDy=0;fontFamily=Helvetica;fontSize=12;fontColor=default;endArrow=open;endFill=0;" parent="1" source="MgezpqlqO5ehmBHzZB3i-57" target="MgezpqlqO5ehmBHzZB3i-69" edge="1">
          <mxGeometry relative="1" as="geometry">
            <mxPoint x="128.5" y="329.5" as="targetPoint" />
          </mxGeometry>
        </mxCell>
        <mxCell id="MgezpqlqO5ehmBHzZB3i-57" value="" style="rhombus;whiteSpace=wrap;html=1;" parent="1" vertex="1">
          <mxGeometry x="248.5" y="128" width="50" height="50" as="geometry" />
        </mxCell>
        <mxCell id="MgezpqlqO5ehmBHzZB3i-58" value="aus Archiv?" style="text;html=1;align=center;verticalAlign=middle;resizable=0;points=[];autosize=1;strokeColor=none;fillColor=none;fontFamily=Helvetica;fontSize=12;fontColor=default;" parent="1" vertex="1">
          <mxGeometry x="288.5" y="128" width="90" height="30" as="geometry" />
        </mxCell>
        <mxCell id="MgezpqlqO5ehmBHzZB3i-62" style="edgeStyle=orthogonalEdgeStyle;rounded=0;orthogonalLoop=1;jettySize=auto;html=1;fontFamily=Helvetica;fontSize=12;fontColor=default;endArrow=open;endFill=0;exitX=1;exitY=0.5;exitDx=0;exitDy=0;" parent="1" source="MgezpqlqO5ehmBHzZB3i-60" target="10" edge="1">
          <mxGeometry relative="1" as="geometry">
            <mxPoint x="203.5" y="358" as="targetPoint" />
            <mxPoint x="153.5" y="354.5" as="sourcePoint" />
          </mxGeometry>
        </mxCell>
        <mxCell id="MgezpqlqO5ehmBHzZB3i-63" style="edgeStyle=orthogonalEdgeStyle;rounded=0;orthogonalLoop=1;jettySize=auto;html=1;entryX=0;entryY=0.5;entryDx=0;entryDy=0;fontFamily=Helvetica;fontSize=12;fontColor=default;endArrow=open;endFill=0;exitX=0.5;exitY=1;exitDx=0;exitDy=0;" parent="1" source="MgezpqlqO5ehmBHzZB3i-60" target="MgezpqlqO5ehmBHzZB3i-49" edge="1">
          <mxGeometry relative="1" as="geometry">
            <mxPoint x="128.5" y="379.5" as="sourcePoint" />
            <Array as="points">
              <mxPoint x="123.5" y="453" />
            </Array>
          </mxGeometry>
        </mxCell>
        <mxCell id="MgezpqlqO5ehmBHzZB3i-60" value="" style="rhombus;whiteSpace=wrap;html=1;" parent="1" vertex="1">
          <mxGeometry x="98.5" y="328" width="50" height="50" as="geometry" />
        </mxCell>
        <mxCell id="MgezpqlqO5ehmBHzZB3i-66" value="[nein]" style="text;html=1;align=center;verticalAlign=middle;resizable=0;points=[];autosize=1;strokeColor=none;fillColor=none;" parent="1" vertex="1">
          <mxGeometry x="118.5" y="386" width="50" height="30" as="geometry" />
        </mxCell>
        <mxCell id="MgezpqlqO5ehmBHzZB3i-68" value="[ja]" style="text;html=1;align=center;verticalAlign=middle;resizable=0;points=[];autosize=1;strokeColor=none;fillColor=none;" parent="1" vertex="1">
          <mxGeometry x="158.5" y="326" width="40" height="30" as="geometry" />
        </mxCell>
        <mxCell id="MgezpqlqO5ehmBHzZB3i-69" value="Assistent*in auswählen" style="rounded=1;whiteSpace=wrap;html=1;strokeColor=default;align=center;verticalAlign=middle;fontFamily=Helvetica;fontSize=12;fontColor=default;labelBackgroundColor=default;fillColor=default;" parent="1" vertex="1">
          <mxGeometry x="71" y="128" width="105" height="50" as="geometry" />
        </mxCell>
        <mxCell id="MgezpqlqO5ehmBHzZB3i-70" style="edgeStyle=orthogonalEdgeStyle;rounded=0;orthogonalLoop=1;jettySize=auto;html=1;entryX=0.95;entryY=0.75;entryDx=0;entryDy=0;entryPerimeter=0;strokeColor=default;align=center;verticalAlign=middle;fontFamily=Helvetica;fontSize=12;fontColor=default;labelBackgroundColor=default;endArrow=open;endFill=0;" parent="1" source="MgezpqlqO5ehmBHzZB3i-69" edge="1">
          <mxGeometry relative="1" as="geometry">
            <mxPoint x="123.5" y="328" as="targetPoint" />
          </mxGeometry>
        </mxCell>
        <mxCell id="MgezpqlqO5ehmBHzZB3i-71" value="[ja]" style="text;html=1;align=center;verticalAlign=middle;resizable=0;points=[];autosize=1;strokeColor=none;fillColor=none;" parent="1" vertex="1">
          <mxGeometry x="188.5" y="128" width="40" height="30" as="geometry" />
        </mxCell>
        <mxCell id="MgezpqlqO5ehmBHzZB3i-80" value="[nein]" style="text;html=1;align=center;verticalAlign=middle;resizable=0;points=[];autosize=1;strokeColor=none;fillColor=none;" parent="1" vertex="1">
          <mxGeometry x="396" y="478" width="50" height="30" as="geometry" />
        </mxCell>
        <mxCell id="qUEp5JDyuRjwkCP3OGmx-12" value="" style="ellipse;html=1;shape=endState;fillColor=#000000;strokeColor=#000000;" parent="1" vertex="1">
          <mxGeometry x="258.5" y="910" width="30" height="30" as="geometry" />
        </mxCell>
        <mxCell id="qUEp5JDyuRjwkCP3OGmx-13" value="&lt;span style=&quot;text-wrap: wrap;&quot;&gt;Stunden-Soll&amp;nbsp;&lt;/span&gt;&lt;div&gt;&lt;span style=&quot;text-wrap: wrap;&quot;&gt;ändern?&lt;/span&gt;&lt;/div&gt;" style="text;html=1;align=center;verticalAlign=middle;resizable=0;points=[];autosize=1;strokeColor=none;fillColor=none;" parent="1" vertex="1">
          <mxGeometry x="30" y="333" width="100" height="40" as="geometry" />
        </mxCell>
        <mxCell id="hqQaLVxirCN9yKYcP4mg-21" style="edgeStyle=orthogonalEdgeStyle;rounded=0;orthogonalLoop=1;jettySize=auto;html=1;entryX=1;entryY=0.5;entryDx=0;entryDy=0;endArrow=open;endFill=0;" edge="1" parent="1" source="hqQaLVxirCN9yKYcP4mg-16" target="hqQaLVxirCN9yKYcP4mg-20">
          <mxGeometry relative="1" as="geometry" />
        </mxCell>
        <mxCell id="hqQaLVxirCN9yKYcP4mg-23" value="" style="edgeStyle=orthogonalEdgeStyle;rounded=0;orthogonalLoop=1;jettySize=auto;html=1;strokeColor=default;align=center;verticalAlign=middle;fontFamily=Helvetica;fontSize=11;fontColor=default;labelBackgroundColor=default;endArrow=open;endFill=0;entryX=0.5;entryY=0;entryDx=0;entryDy=0;" edge="1" parent="1" source="hqQaLVxirCN9yKYcP4mg-16" target="hqQaLVxirCN9yKYcP4mg-38">
          <mxGeometry relative="1" as="geometry">
            <mxPoint x="273.5" y="730" as="targetPoint" />
          </mxGeometry>
        </mxCell>
        <mxCell id="hqQaLVxirCN9yKYcP4mg-16" value="" style="rhombus;whiteSpace=wrap;html=1;" vertex="1" parent="1">
          <mxGeometry x="248.5" y="638" width="50" height="50" as="geometry" />
        </mxCell>
        <mxCell id="hqQaLVxirCN9yKYcP4mg-18" value="Tags&amp;nbsp;&lt;div&gt;zuordnen?&lt;/div&gt;" style="text;html=1;align=center;verticalAlign=middle;resizable=0;points=[];autosize=1;strokeColor=none;fillColor=none;" vertex="1" parent="1">
          <mxGeometry x="278.5" y="620" width="80" height="40" as="geometry" />
        </mxCell>
        <mxCell id="hqQaLVxirCN9yKYcP4mg-29" style="edgeStyle=orthogonalEdgeStyle;rounded=0;orthogonalLoop=1;jettySize=auto;html=1;entryX=0.5;entryY=0;entryDx=0;entryDy=0;strokeColor=default;align=center;verticalAlign=middle;fontFamily=Helvetica;fontSize=11;fontColor=default;labelBackgroundColor=default;endArrow=open;endFill=0;" edge="1" parent="1" source="hqQaLVxirCN9yKYcP4mg-20" target="hqQaLVxirCN9yKYcP4mg-27">
          <mxGeometry relative="1" as="geometry" />
        </mxCell>
        <mxCell id="hqQaLVxirCN9yKYcP4mg-20" value="Tag auswählen" style="rounded=1;whiteSpace=wrap;html=1;" vertex="1" parent="1">
          <mxGeometry x="72" y="638" width="120" height="52" as="geometry" />
        </mxCell>
        <mxCell id="hqQaLVxirCN9yKYcP4mg-25" value="[ja]" style="text;html=1;align=center;verticalAlign=middle;resizable=0;points=[];autosize=1;strokeColor=none;fillColor=none;fontFamily=Helvetica;fontSize=11;fontColor=default;labelBackgroundColor=default;" vertex="1" parent="1">
          <mxGeometry x="208.5" y="638" width="40" height="30" as="geometry" />
        </mxCell>
        <mxCell id="hqQaLVxirCN9yKYcP4mg-26" value="[nein]" style="text;html=1;align=center;verticalAlign=middle;resizable=0;points=[];autosize=1;strokeColor=none;fillColor=none;fontFamily=Helvetica;fontSize=11;fontColor=default;labelBackgroundColor=default;" vertex="1" parent="1">
          <mxGeometry x="268.5" y="680" width="50" height="30" as="geometry" />
        </mxCell>
        <mxCell id="hqQaLVxirCN9yKYcP4mg-32" style="edgeStyle=orthogonalEdgeStyle;rounded=0;orthogonalLoop=1;jettySize=auto;html=1;entryX=0.5;entryY=0;entryDx=0;entryDy=0;strokeColor=default;align=center;verticalAlign=middle;fontFamily=Helvetica;fontSize=11;fontColor=default;labelBackgroundColor=default;endArrow=open;endFill=0;" edge="1" parent="1" source="hqQaLVxirCN9yKYcP4mg-27" target="hqQaLVxirCN9yKYcP4mg-31">
          <mxGeometry relative="1" as="geometry" />
        </mxCell>
        <mxCell id="hqQaLVxirCN9yKYcP4mg-39" style="edgeStyle=orthogonalEdgeStyle;rounded=0;orthogonalLoop=1;jettySize=auto;html=1;entryX=0;entryY=0.5;entryDx=0;entryDy=0;strokeColor=default;align=center;verticalAlign=middle;fontFamily=Helvetica;fontSize=11;fontColor=default;labelBackgroundColor=default;endArrow=open;endFill=0;" edge="1" parent="1" source="hqQaLVxirCN9yKYcP4mg-31" target="hqQaLVxirCN9yKYcP4mg-38">
          <mxGeometry relative="1" as="geometry" />
        </mxCell>
        <mxCell id="hqQaLVxirCN9yKYcP4mg-31" value="Tags bearbeiten" style="rounded=1;whiteSpace=wrap;html=1;" vertex="1" parent="1">
          <mxGeometry x="72" y="820" width="120" height="52" as="geometry" />
        </mxCell>
        <mxCell id="hqQaLVxirCN9yKYcP4mg-33" value="Tag &lt;br&gt;vorhanden?" style="text;html=1;align=center;verticalAlign=middle;resizable=0;points=[];autosize=1;strokeColor=none;fillColor=none;fontFamily=Helvetica;fontSize=11;fontColor=default;labelBackgroundColor=default;" vertex="1" parent="1">
          <mxGeometry x="40" y="740" width="80" height="40" as="geometry" />
        </mxCell>
        <mxCell id="hqQaLVxirCN9yKYcP4mg-36" style="edgeStyle=orthogonalEdgeStyle;rounded=0;orthogonalLoop=1;jettySize=auto;html=1;entryX=0.5;entryY=0;entryDx=0;entryDy=0;strokeColor=default;align=center;verticalAlign=middle;fontFamily=Helvetica;fontSize=11;fontColor=default;labelBackgroundColor=default;endArrow=open;endFill=0;" edge="1" parent="1" source="hqQaLVxirCN9yKYcP4mg-27" target="hqQaLVxirCN9yKYcP4mg-38">
          <mxGeometry relative="1" as="geometry">
            <mxPoint x="248.5" y="755" as="targetPoint" />
          </mxGeometry>
        </mxCell>
        <mxCell id="hqQaLVxirCN9yKYcP4mg-27" value="" style="rhombus;whiteSpace=wrap;html=1;fontFamily=Helvetica;fontSize=11;fontColor=default;labelBackgroundColor=default;" vertex="1" parent="1">
          <mxGeometry x="107" y="729" width="50" height="50" as="geometry" />
        </mxCell>
        <mxCell id="hqQaLVxirCN9yKYcP4mg-34" value="[nein]" style="text;html=1;align=center;verticalAlign=middle;resizable=0;points=[];autosize=1;strokeColor=none;fillColor=none;fontFamily=Helvetica;fontSize=11;fontColor=default;labelBackgroundColor=default;" vertex="1" parent="1">
          <mxGeometry x="127" y="780" width="50" height="30" as="geometry" />
        </mxCell>
        <mxCell id="hqQaLVxirCN9yKYcP4mg-37" value="[ja]" style="text;html=1;align=center;verticalAlign=middle;resizable=0;points=[];autosize=1;strokeColor=none;fillColor=none;fontFamily=Helvetica;fontSize=11;fontColor=default;labelBackgroundColor=default;" vertex="1" parent="1">
          <mxGeometry x="169" y="730" width="40" height="30" as="geometry" />
        </mxCell>
        <mxCell id="hqQaLVxirCN9yKYcP4mg-41" style="edgeStyle=orthogonalEdgeStyle;rounded=0;orthogonalLoop=1;jettySize=auto;html=1;entryX=0.5;entryY=0;entryDx=0;entryDy=0;strokeColor=default;align=center;verticalAlign=middle;fontFamily=Helvetica;fontSize=11;fontColor=default;labelBackgroundColor=default;endArrow=open;endFill=0;" edge="1" parent="1" source="hqQaLVxirCN9yKYcP4mg-38" target="qUEp5JDyuRjwkCP3OGmx-12">
          <mxGeometry relative="1" as="geometry" />
        </mxCell>
        <mxCell id="hqQaLVxirCN9yKYcP4mg-38" value="" style="rhombus;whiteSpace=wrap;html=1;fontFamily=Helvetica;fontSize=11;fontColor=default;labelBackgroundColor=default;" vertex="1" parent="1">
          <mxGeometry x="248.5" y="821" width="50" height="50" as="geometry" />
        </mxCell>
        <mxCell id="hqQaLVxirCN9yKYcP4mg-42" value="" style="strokeWidth=1;html=1;shape=mxgraph.flowchart.annotation_2;align=left;labelPosition=right;pointerEvents=1;rotation=90;fontFamily=Helvetica;fontSize=11;fontColor=default;labelBackgroundColor=default;" vertex="1" parent="1">
          <mxGeometry x="174" y="826" width="9" height="11" as="geometry" />
        </mxCell>
        <mxCell id="hqQaLVxirCN9yKYcP4mg-43" value="" style="endArrow=none;html=1;rounded=0;entryX=0.519;entryY=0.49;entryDx=0;entryDy=0;entryPerimeter=0;exitX=1;exitY=0.5;exitDx=0;exitDy=0;exitPerimeter=0;strokeWidth=1;strokeColor=default;align=center;verticalAlign=middle;fontFamily=Helvetica;fontSize=11;fontColor=default;labelBackgroundColor=default;edgeStyle=orthogonalEdgeStyle;" edge="1" source="hqQaLVxirCN9yKYcP4mg-42" target="hqQaLVxirCN9yKYcP4mg-42" parent="1">
          <mxGeometry width="50" height="50" relative="1" as="geometry">
            <mxPoint x="-439" y="917.5" as="sourcePoint" />
            <mxPoint x="-376" y="947.5" as="targetPoint" />
          </mxGeometry>
        </mxCell>
      </root>
    </mxGraphModel>
  </diagram>
</mxfile>
